Jump_normalized_Precision Landing12_filtered_grf
version=1
nRows=27
nColumns=37
inDegrees=yes
endheader
time		1_ground_force_vx		1_ground_force_vy		1_ground_force_vz		1_ground_force_px		1_ground_force_py		1_ground_force_pz		1_ground_torque_x		1_ground_torque_y		1_ground_torque_z		2_ground_force_vx		2_ground_force_vy		2_ground_force_vz		2_ground_force_px		2_ground_force_py		2_ground_force_pz		2_ground_torque_x		2_ground_torque_y		2_ground_torque_z		3_ground_force_vx		3_ground_force_vy		3_ground_force_vz		3_ground_force_px		3_ground_force_py		3_ground_force_pz		3_ground_torque_x		3_ground_torque_y		3_ground_torque_z		4_ground_force_vx		4_ground_force_vy		4_ground_force_vz		4_ground_force_px		4_ground_force_py		4_ground_force_pz		4_ground_torque_x		4_ground_torque_y		4_ground_torque_z		
0.315333		-0.000000		-0.000000		-0.000000		0.104050		0.000000		0.350637		-0.000000		-0.000000		0.000000		0.000000		0.000000		0.000000		-0.146138		0.000000		0.395224		0.000000		-0.000000		-0.000000		-13.897862		473.760013		60.016378		0.352883		1.254164		1.892559		0.742887		-25.324045		-3.208072		7.052199		543.129401		27.695830		-0.289660		1.264059		1.903976		0.422615		32.548000		1.659719		
0.319146		-0.000000		-0.000000		-0.000000		0.104050		0.000000		0.350637		-0.000000		-0.000000		0.000000		-0.000000		-0.000000		-0.000000		-0.146138		0.000000		0.395224		-0.000000		-0.000000		-0.000000		-13.346235		471.612711		56.497191		0.352971		1.254217		1.892584		0.716035		-25.302351		-3.031112		6.163117		538.196885		24.690226		-0.289642		1.264062		1.904024		0.370831		32.383063		1.485597		
0.322960		0.000000		-0.000000		-0.000000		0.104050		0.000000		0.350637		-0.000000		-0.000000		0.000000		-0.000000		-0.000000		-0.000000		-0.146138		0.000000		0.395224		-0.000000		0.000000		-0.000000		-12.826023		469.361055		53.385424		0.352965		1.254230		1.892645		0.690220		-25.258221		-2.872886		5.312942		533.038750		21.455331		-0.289632		1.264063		1.904072		0.320843		32.189670		1.295665		
0.326773		0.000000		-0.000000		-0.000000		0.104050		0.000000		0.350637		-0.000000		-0.000000		0.000000		-0.000000		-0.000000		-0.000000		-0.146138		0.000000		0.395224		-0.000000		0.000000		-0.000000		-12.366119		466.988150		50.621042		0.352920		1.254214		1.892707		0.667066		-25.190782		-2.730654		4.473293		527.640490		17.944258		-0.289622		1.264059		1.904124		5.300849		29.500412		72.458234		
0.330586		0.000000		0.000000		0.000000		0.104050		0.000000		0.350637		0.000000		-0.000000		-0.000000		-0.000000		-0.000000		-0.000000		-0.146138		0.000000		0.395224		-0.000000		0.000000		-0.000000		-12.013379		464.435064		48.117183		0.352887		1.254194		1.892742		0.649338		-25.103298		-2.600793		3.610440		522.050693		14.257097		-0.289610		1.264050		1.904176		5.167008		29.771838		71.636347		
0.334399		0.000000		0.000000		0.000000		0.104050		0.000000		0.350637		0.000000		0.000000		-0.000000		-0.000000		0.000000		-0.000000		-0.146138		0.000000		0.395224		-0.000000		0.000000		0.000000		-11.807877		461.631472		45.776046		0.352884		1.254184		1.892749		0.639467		-25.000084		-2.479044		2.707029		516.366221		10.590453		-0.289593		1.264037		1.904219		5.043497		30.048298		70.801369		
0.338212		-0.000000		0.000000		0.000000		0.104050		0.000000		0.350637		0.000000		0.000000		-0.000000		0.000000		0.000000		0.000000		-0.146138		0.000000		0.395224		0.000000		-0.000000		0.000000		-11.769951		458.554049		43.444191		0.352902		1.254194		1.892745		0.638737		-24.885027		-2.357649		1.772035		510.715432		7.122760		-0.289574		1.264025		1.904247		4.928254		30.319304		69.972303		
0.342025		-0.000000		0.000000		0.000000		0.104050		0.000000		0.350637		0.000000		0.000000		-0.000000		0.000000		0.000000		0.000000		-0.146138		0.000000		0.395224		0.000000		-0.000000		0.000000		-11.900740		455.266378		40.943595		0.352922		1.254220		1.892746		0.647284		-24.762063		-2.226933		0.834270		505.234410		3.913816		-0.289555		1.264017		1.904259		4.820283		30.582118		69.166335		
0.345838		-0.000000		-0.000000		0.000000		0.104050		0.000000		0.350637		-0.000000		0.000000		0.000000		0.000000		0.000000		0.000000		-0.146138		0.000000		0.395224		0.000000		-0.000000		0.000000		-12.181930		451.922228		38.140726		0.352929		1.254255		1.892754		0.664130		-24.637716		-2.079339		-0.063716		500.040240		0.874653		-0.289537		1.264019		1.904262		4.719176		30.848008		68.394245		
0.349652		-0.000000		-0.000000		-0.000000		0.104050		0.000000		0.350637		-0.000000		-0.000000		0.000000		0.000000		-0.000000		0.000000		-0.146138		0.000000		0.395224		0.000000		-0.000000		-0.000000		-12.580316		448.725008		35.007670		0.352925		1.254286		1.892760		0.687506		-24.522494		-1.913142		-0.864383		495.186191		-2.165802		-0.289521		1.264029		1.904266		4.622383		31.135803		67.658907		
0.353465		-0.000000		-0.000000		-0.000000		0.104050		0.000000		0.350637		-0.000000		-0.000000		0.000000		-0.000000		-0.000000		-0.000000		-0.146138		0.000000		0.395224		-0.000000		0.000000		-0.000000		-13.061705		445.851877		31.608176		0.352920		1.254299		1.892748		0.715656		-24.428406		-1.731824		-1.508324		490.640706		-5.364751		-0.289513		1.264045		1.904277		4.523468		31.460565		66.955686		
0.357278		0.000000		-0.000000		-0.000000		0.104050		0.000000		0.350637		-0.000000		-0.000000		0.000000		-0.000000		-0.000000		-0.000000		-0.146138		0.000000		0.395224		-0.000000		0.000000		-0.000000		-13.593307		443.401255		28.048623		0.352932		1.254291		1.892709		0.746929		-24.364123		-1.541221		-1.968264		486.293601		-8.799287		-0.289512		1.264060		1.904297		4.416703		31.824892		66.272928		
0.361091		0.000000		0.000000		-0.000000		0.104050		0.000000		0.350637		0.000000		-0.000000		-0.000000		-0.000000		-0.000000		-0.000000		-0.146138		0.000000		0.395224		-0.000000		0.000000		-0.000000		-14.155439		441.384258		24.439021		0.352972		1.254258		1.892640		0.780316		-24.331224		-1.347195		-2.273095		482.004682		-12.426524		-0.289517		1.264070		1.904324		4.298687		32.215345		65.596830		
0.364904		0.000000		0.000000		0.000000		0.104050		0.000000		0.350637		0.000000		0.000000		-0.000000		-0.000000		0.000000		-0.000000		-0.146138		0.000000		0.395224		-0.000000		0.000000		0.000000		-14.736524		439.781563		20.861517		0.353036		1.254211		1.892561		0.815159		-24.326771		-1.153965		-2.490784		477.678420		-16.151216		-0.289525		1.264074		1.904350		4.174286		32.614413		64.916169		
0.368717		0.000000		0.000000		0.000000		0.104050		0.000000		0.350637		0.000000		0.000000		-0.000000		0.000000		0.000000		0.000000		-0.146138		0.000000		0.395224		0.000000		-0.000000		0.000000		-15.329585		438.592167		17.423391		0.353107		1.254162		1.892500		0.850995		-24.347668		-0.967226		-2.690551		473.301817		-19.853681		-0.289529		1.264072		1.904373		4.051447		33.005185		64.229915		
0.372530		-0.000000		0.000000		0.000000		0.104050		0.000000		0.350637		0.000000		0.000000		-0.000000		0.000000		0.000000		0.000000		-0.146138		0.000000		0.395224		0.000000		-0.000000		0.000000		-15.917149		437.856338		14.170784		0.353159		1.254123		1.892479		0.886742		-24.392894		-0.789452		-2.920247		468.919853		-23.458239		-0.289529		1.264066		1.904387		3.937286		33.380049		63.545459		
0.376343		-0.000000		0.000000		0.000000		0.104050		0.000000		0.350637		0.000000		0.000000		-0.000000		0.000000		0.000000		0.000000		-0.146138		0.000000		0.395224		0.000000		-0.000000		0.000000		-16.454755		437.633048		11.147733		0.353158		1.254108		1.892529		0.919788		-24.462791		-0.623133		-3.212173		464.574437		-26.953335		-0.289523		1.264062		1.904394		3.836094		33.742291		62.870306		
0.380157		-0.000000		-0.000000		-0.000000		0.104050		0.000000		0.350637		-0.000000		-0.000000		0.000000		0.000000		-0.000000		0.000000		-0.146138		0.000000		0.395224		0.000000		-0.000000		-0.000000		-16.875634		437.956860		8.229446		0.353105		1.254120		1.892635		0.946308		-24.558597		-0.461467		-3.591726		460.249524		-30.377555		-0.289513		1.264061		1.904399		3.745505		34.102196		62.202184		
0.383970		-0.000000		-0.000000		-0.000000		0.104050		0.000000		0.350637		-0.000000		-0.000000		0.000000		-0.000000		-0.000000		0.000000		-0.146138		0.000000		0.395224		0.000000		-0.000000		-0.000000		-17.111300		438.816742		5.231076		0.353005		1.254157		1.892780		0.962502		-24.683197		-0.294244		-4.077500		455.848053		-33.801312		-0.289500		1.264065		1.904411		3.661427		34.471508		61.523351		
0.387783		0.000000		-0.000000		-0.000000		0.104050		0.000000		0.350637		-0.000000		-0.000000		0.000000		-0.000000		-0.000000		-0.000000		-0.146138		0.000000		0.395224		-0.000000		0.000000		-0.000000		-17.138527		440.151009		1.912890		0.352894		1.254205		1.892920		0.967274		-24.841498		-0.107958		-4.666502		451.210391		-37.284915		-0.289486		1.264073		1.904429		3.580175		34.853708		60.805489		
0.391596		0.000000		-0.000000		-0.000000		0.104050		0.000000		0.350637		-0.000000		-0.000000		0.000000		-0.000000		-0.000000		-0.000000		-0.146138		0.000000		0.395224		-0.000000		0.000000		-0.000000		-17.008365		441.844419		-1.894294		0.352807		1.254252		1.893026		0.963786		-25.037316		0.107344		-5.331759		446.160564		-40.851396		-0.289468		1.264082		1.904453		3.500984		35.238484		60.019927		
0.395409		0.000000		0.000000		0.000000		0.104050		0.000000		0.350637		0.000000		-0.000000		-0.000000		-0.000000		-0.000000		-0.000000		-0.146138		0.000000		0.395224		-0.000000		0.000000		-0.000000		-16.819757		443.748405		-6.201164		0.352766		1.254287		1.893094		0.957801		-25.269266		0.353129		-6.042817		440.531834		-44.458032		-0.289445		1.264090		1.904476		-0.401651		29.280993		-2.955013		
0.399222		0.000000		0.000000		0.000000		0.104050		0.000000		0.350637		0.000000		0.000000		-0.000000		-0.000000		0.000000		-0.000000		-0.146138		0.000000		0.395224		-0.000000		0.000000		0.000000		-16.656041		445.692873		-10.923537		0.352775		1.254304		1.893135		0.953972		-25.526982		0.625651		-6.769519		434.183878		-47.997490		-0.289415		1.264092		1.904498		-0.453090		29.060227		-3.212514		
0.403035		-0.000000		0.000000		0.000000		0.104050		0.000000		0.350637		0.000000		0.000000		-0.000000		0.000000		0.000000		0.000000		-0.146138		0.000000		0.395224		0.000000		-0.000000		0.000000		-16.545261		447.503168		-15.937640		0.352811		1.254309		1.893180		0.953618		-25.792710		0.918599		-7.468223		427.005432		-51.316827		-0.289380		1.264093		1.904519		-0.503228		28.772729		-3.457862		
0.406848		-0.000000		0.000000		0.000000		0.104050		0.000000		0.350637		0.000000		0.000000		-0.000000		0.000000		0.000000		0.000000		-0.146138		0.000000		0.395224		0.000000		-0.000000		0.000000		-16.478414		449.014891		-21.185625		0.352843		1.254309		1.893253		0.955900		-26.047015		1.228970		-8.078270		418.894762		-54.271540		-0.289342		1.264095		1.904543		-0.547848		28.408305		-3.680554		
0.410662		-0.000000		-0.000000		0.000000		0.104050		0.000000		0.350637		-0.000000		0.000000		0.000000		0.000000		0.000000		0.000000		-0.146138		0.000000		0.395224		0.000000		-0.000000		0.000000		-16.434932		450.098271		-26.714130		0.352833		1.254319		1.893376		0.959397		-26.274693		1.559458		-8.539073		409.783356		-56.787766		-0.289307		1.264101		1.904573		-0.582627		27.959795		-3.874673		
0.414475		-0.000000		-0.000000		-0.000000		0.104050		0.000000		0.350637		-0.000000		-0.000000		0.000000		0.000000		-0.000000		0.000000		-0.146138		0.000000		0.395224		0.000000		-0.000000		-0.000000		-16.389368		450.660220		-32.631401		0.352761		1.254351		1.893552		0.962546		-26.467239		1.916441		-8.817111		399.643012		-58.883611		-0.289284		1.264114		1.904610		-0.604963		27.420425		-4.040141		
